<svg width="124" height="27" viewBox="0 0 124 27" fill="none" xmlns="http://www.w3.org/2000/svg">
<path d="M13.9264 2.78166C14.234 1.87797 15.5121 1.87796 15.8197 2.78166L17.7879 8.5641C17.9259 8.96936 18.3065 9.24187 18.7346 9.24187H25.0014C25.9814 9.24187 26.3765 10.5051 25.5713 11.0636L20.5825 14.5235C20.2157 14.7779 20.0619 15.2448 20.2058 15.6674L22.13 21.3205C22.4408 22.2337 21.4061 23.0142 20.6134 22.4644L15.4429 18.8785C15.1002 18.6408 14.6459 18.6408 14.3031 18.8785L9.13263 22.4644C8.33996 23.0142 7.30524 22.2337 7.61607 21.3205L9.54027 15.6674C9.68414 15.2448 9.53039 14.7779 9.1635 14.5235L4.17474 11.0636C3.3695 10.5051 3.76469 9.24187 4.74463 9.24187H11.0115C11.4396 9.24187 11.8202 8.96936 11.9581 8.5641L13.9264 2.78166Z" fill="#FFA858"/>
<path d="M37.4853 2.92763C37.7847 2.00631 39.0881 2.00631 39.3874 2.92763L41.2145 8.55088C41.3483 8.9629 41.7323 9.24187 42.1655 9.24187H48.0781C49.0468 9.24187 49.4496 10.4815 48.6659 11.0509L43.8825 14.5263C43.532 14.781 43.3853 15.2323 43.5192 15.6443L45.3463 21.2677C45.6456 22.189 44.5911 22.9551 43.8074 22.3857L39.0242 18.9103C38.6737 18.6557 38.1991 18.6557 37.8486 18.9103L33.0653 22.3857C32.2816 22.9551 31.2271 22.189 31.5264 21.2677L33.3535 15.6443C33.4874 15.2323 33.3407 14.781 32.9903 14.5263L28.2069 11.0509C27.4232 10.4815 27.826 9.24187 28.7947 9.24187H34.7072C35.1404 9.24187 35.5244 8.9629 35.6583 8.55088L37.4853 2.92763Z" fill="#FFA858"/>
<path d="M61.0533 2.78166C61.3609 1.87797 62.639 1.87796 62.9466 2.78166L64.9149 8.5641C65.0528 8.96936 65.4334 9.24187 65.8615 9.24187H72.1284C73.1083 9.24187 73.5035 10.5051 72.6983 11.0636L67.7095 14.5235C67.3426 14.7779 67.1889 15.2448 67.3327 15.6674L69.2569 21.3205C69.5678 22.2337 68.533 23.0142 67.7404 22.4644L62.5699 18.8785C62.2271 18.6408 61.7728 18.6408 61.4301 18.8785L56.2596 22.4644C55.4669 23.0142 54.4322 22.2337 54.743 21.3205L56.6672 15.6674C56.8111 15.2448 56.6573 14.7779 56.2905 14.5235L51.3017 11.0636C50.4965 10.5051 50.8916 9.24187 51.8716 9.24187H58.1384C58.5665 9.24187 58.9471 8.96936 59.0851 8.5641L61.0533 2.78166Z" fill="#FFA858"/>
<path d="M84.6123 2.92763C84.9116 2.00631 86.215 2.00631 86.5144 2.92763L88.3414 8.55088C88.4753 8.9629 88.8593 9.24187 89.2925 9.24187H95.205C96.1737 9.24187 96.5765 10.4815 95.7928 11.0509L91.0094 14.5263C90.659 14.781 90.5123 15.2323 90.6462 15.6443L92.4732 21.2677C92.7726 22.189 91.7181 22.9551 90.9344 22.3857L86.1511 18.9103C85.8006 18.6557 85.326 18.6557 84.9755 18.9103L80.1923 22.3857C79.4085 22.9551 78.3541 22.189 78.6534 21.2677L80.4805 15.6443C80.6143 15.2323 80.4677 14.781 80.1172 14.5263L75.3338 11.0509C74.5501 10.4815 74.9529 9.24187 75.9216 9.24187H81.8341C82.2674 9.24187 82.6513 8.9629 82.7852 8.55088L84.6123 2.92763Z" fill="#FFA858"/>
<path d="M109.6 2.94278L111.568 8.72521C111.775 9.33311 112.346 9.74187 112.988 9.74187H119.255C119.745 9.74187 119.943 10.3735 119.54 10.6527L114.551 14.1126C114.001 14.4943 113.771 15.1945 113.986 15.8285L115.911 21.4816C116.066 21.9382 115.549 22.3284 115.152 22.0536L109.982 18.4676C109.468 18.1111 108.786 18.1111 108.272 18.4676L103.102 22.0536C102.705 22.3284 102.188 21.9382 102.343 21.4816L104.268 15.8285C104.483 15.1945 104.253 14.4943 103.702 14.1126L98.7136 10.6527C98.311 10.3735 98.5086 9.74187 98.9985 9.74187H105.265C105.908 9.74187 106.478 9.33311 106.685 8.72521L108.654 2.94278C108.807 2.49093 109.446 2.49093 109.6 2.94278Z" fill="#FFA858" stroke="#FFA858"/>
</svg>
